<?xml version="1.0" encoding="UTF-8"?>
<svg width="99px" height="99px" viewBox="0 0 99 99" version="1.1" xmlns="http://www.w3.org/2000/svg" xmlns:xlink="http://www.w3.org/1999/xlink">
    <!-- Generator: Sketch 46.2 (44496) - http://www.bohemiancoding.com/sketch -->
    <title>seven elohim logo_RGB Copy 4</title>
    <desc>Created with Sketch.</desc>
    <defs></defs>
    <g id="Page-2" stroke="none" stroke-width="1" fill="none" fill-rule="evenodd">
        <g id="Desktop-HD" transform="translate(-670.000000, -464.000000)" fill-rule="nonzero" fill="#6B615D">
            <g id="seven-elohim-logo_RGB-Copy-4" transform="translate(670.000000, 464.000000)">
                <path d="M49.4418605,0 C22.1360465,0 0,22.1360465 0,49.4418605 C0,76.7465116 22.1360465,98.8837209 49.4418605,98.8837209 C76.7476744,98.8837209 98.8837209,76.7476744 98.8837209,49.4418605 C98.8837209,22.1360465 76.7476744,0 49.4418605,0 L49.4418605,0 Z M86.7732558,59.0918605 C86.6790698,59.0918605 86.5837209,59.0813953 86.4883721,59.0604651 L53.9697674,51.8581395 L52.0127907,51.4965116 L52.8883721,53.2686047 L59.8511628,66.4767442 C60.1883721,67.1174419 59.9430233,67.9093023 59.3023256,68.2453488 C59.1081395,68.35 58.8988372,68.3976744 58.6930233,68.3976744 C58.2232558,68.3976744 57.7674419,68.1430233 57.5325581,67.6976744 L50.5430233,54.4383721 L49.5395349,52.7813953 L48.5732558,54.4709302 L36.3523256,80.7139535 C36.1302326,81.1906977 35.6569767,81.4697674 35.1639535,81.4697674 C34.9790698,81.4697674 34.7906977,81.4313953 34.6116279,81.3476744 C33.955814,81.0406977 33.6709302,80.2616279 33.9767442,79.605814 L46.1569767,53.4534884 L46.8372093,51.5953488 L44.9069767,51.8453488 L9.13837209,59.9965116 C9.04069767,60.0186047 8.94302326,60.0290698 8.84651163,60.0290698 C8.24883721,60.0290698 7.70813953,59.6174419 7.56976744,59.0093023 C7.40930233,58.3034884 7.85,57.6011628 8.55581395,57.4406977 L44.2627907,49.3034884 L46.1453488,48.7593023 L44.705814,47.3790698 L24.822093,31.2732558 C24.2604651,30.8174419 24.1732558,29.9918605 24.6290698,29.4302326 C25.0848837,28.8674419 25.9104651,28.7813953 26.472093,29.2360465 L46.2895349,45.2883721 L47.9918605,46.4186047 L48.2104651,44.4418605 L48.2104651,13 C48.2104651,12.2767442 48.7965116,11.6895349 49.5209302,11.6895349 C50.2453488,11.6895349 50.8302326,12.2767442 50.8302326,13 L50.8302326,44.4686047 L50.9918605,46.4511628 L52.6139535,45.4546512 L68.3825581,33.4593023 C68.9593023,33.0209302 69.7813953,33.1325581 70.2197674,33.7093023 C70.6581395,34.2848837 70.5453488,35.1081395 69.9697674,35.5453488 L54.1976744,47.544186 L52.7372093,48.7604651 L54.5290698,49.2965116 L87.0546512,56.5011628 C87.7604651,56.6569767 88.2069767,57.3569767 88.05,58.0639535 C87.9151163,58.6755814 87.3744186,59.0918605 86.7732558,59.0918605 L86.7732558,59.0918605 Z" id="Shape"></path>
            </g>
        </g>
    </g>
</svg>